<svg width="21" height="18" viewBox="0 0 21 18" fill="none" xmlns="http://www.w3.org/2000/svg">
<path d="M0.630005 15.1498C2.45681 16.3204 4.5704 16.9661 6.73953 17.0163C8.90867 17.0664 11.0498 16.519 12.9287 15.434C14.8076 14.3489 16.352 12.7681 17.3928 10.8643C18.4336 8.96051 18.9308 6.80715 18.83 4.63978C19.6427 4.04905 20.3465 3.32156 20.91 2.48979C20.15 2.82378 19.3445 3.04284 18.52 3.13978C19.3902 2.62204 20.041 1.80404 20.35 0.839797C19.5295 1.32038 18.6335 1.65849 17.7 1.8398C17.0717 1.17813 16.2432 0.741412 15.3422 0.596923C14.4413 0.452433 13.5178 0.608193 12.714 1.04019C11.9103 1.47219 11.2709 2.15646 10.8943 2.98761C10.5177 3.81876 10.4248 4.75067 10.63 5.63978C8.97731 5.55657 7.36049 5.12728 5.88422 4.37967C4.40794 3.63206 3.1051 2.58279 2.06 1.29979C1.52601 2.21475 1.36215 3.29928 1.60199 4.33116C1.84183 5.36304 2.46723 6.26413 3.35001 6.84979C2.68746 6.83026 2.03928 6.65192 1.45999 6.32979C1.4499 7.29909 1.77784 8.24164 2.38739 8.99536C2.99694 9.74909 3.85005 10.2669 4.80002 10.4598C4.1873 10.6289 3.54361 10.6529 2.92001 10.5298C3.18523 11.3575 3.70303 12.0814 4.40073 12.5997C5.09842 13.118 5.94096 13.4048 6.81 13.4198C5.94517 14.102 4.95379 14.6061 3.89307 14.903C2.83235 15.1999 1.72332 15.2838 0.630005 15.1498Z" fill="white"/>
</svg>
