<svg width="28" height="20" viewBox="0 0 28 20" fill="none" xmlns="http://www.w3.org/2000/svg">
<path fill-rule="evenodd" clip-rule="evenodd" d="M25.8897 1.68655C26.3106 2.10919 26.614 2.63425 26.77 3.20996C27.5166 7.55814 27.5166 12.0018 26.77 16.35C26.614 16.9257 26.3106 17.4507 25.8897 17.8734C25.4688 18.296 24.945 18.6016 24.37 18.76C22.26 19.33 13.78 19.33 13.78 19.33C13.78 19.33 5.30998 19.33 3.18998 18.76C2.61632 18.601 2.09407 18.2951 1.6749 17.8724C1.25573 17.4497 0.954145 16.9249 0.799964 16.35C0.0399858 12.0029 0.0399858 7.55699 0.799964 3.20996C0.954145 2.63499 1.25573 2.11024 1.6749 1.68756C2.09407 1.26488 2.61632 0.958924 3.18998 0.799957C5.30998 0.229957 13.78 0.22998 13.78 0.22998C13.78 0.22998 22.26 0.229957 24.37 0.799957C24.945 0.958316 25.4688 1.26392 25.8897 1.68655ZM10.66 5.25V14.31L18.63 9.78L10.66 5.25Z" fill="white"/>
</svg>
